<?xml version="1.0" encoding="utf-8"?>
<!-- Generator: Adobe Illustrator 19.0.1, SVG Export Plug-In . SVG Version: 6.00 Build 0)  -->
<svg version="1.1" id="Ebene_1" xmlns="http://www.w3.org/2000/svg" xmlns:xlink="http://www.w3.org/1999/xlink" x="0px" y="0px"
	 viewBox="0 0 18 18" style="enable-background:new 0 0 18 18;" xml:space="preserve">
<style type="text/css">
	.st0{fill:#FFFFFF;}
</style>
<path class="st0" d="M12.9,8.3c-2.5,0-4.6,2.1-4.6,4.6s2.1,4.6,4.6,4.6s4.6-2.1,4.6-4.6S15.4,8.3,12.9,8.3z M15.2,13.4h-1.8v1.8
	h-0.9v-1.8h-1.8v-0.9h1.8v-1.8h0.9v1.8h1.8V13.4z"/>
<path class="st0" d="M11.4,7.8V2.9c0-0.7-0.5-1.2-1.2-1.2H7.6C7.4,1,6.7,0.5,5.9,0.5S4.5,1,4.3,1.7H1.7C1,1.7,0.5,2.2,0.5,2.9v8.7
	c0,0.7,0.5,1.2,1.2,1.2h5.8C7.5,10.6,9.2,8.5,11.4,7.8z M5.9,1.7c0.3,0,0.6,0.3,0.6,0.6S6.2,2.9,5.9,2.9c-0.3,0-0.6-0.3-0.6-0.6
	S5.6,1.7,5.9,1.7z M4.7,10.5L2.3,8L3.1,7l1.5,1.6l4-4.1l0.8,0.9L4.7,10.5z"/>
</svg>
